<?xml version="1.0" standalone="no"?>
<!DOCTYPE svg PUBLIC "-//W3C//DTD SVG 20010904//EN"
 "http://www.w3.org/TR/2001/REC-SVG-20010904/DTD/svg10.dtd">
<svg version="1.0" xmlns="http://www.w3.org/2000/svg"
 width="985.000000pt" height="525.000000pt" viewBox="0 0 985.000000 525.000000"
 preserveAspectRatio="xMidYMid meet">
<metadata>
Created by potrace 1.15, written by Peter Selinger 2001-2017
</metadata>
<g transform="translate(0.000000,525.000000) scale(0.100000,-0.100000)"
fill="#000000" stroke="none">
<path d="M4510 1946 c-20 -18 -1068 -188 -1090 -176 -10 6 -22 3 -35 -9 -23
-21 -1048 -326 -1084 -323 -13 1 -31 -4 -39 -10 -21 -18 -1064 -257 -1082
-248 -21 10 -40 1 -40 -20 0 -24 31 -35 45 -16 14 18 1057 260 1085 251 12 -4
30 2 47 14 35 24 1048 325 1074 318 10 -3 26 1 37 9 22 15 981 174 1087 179
95 6 1085 -63 1112 -77 12 -6 29 -8 39 -4 22 8 1298 -172 1302 -184 2 -6 15
-10 28 -10 17 0 24 5 24 20 0 24 -25 37 -43 22 -16 -13 -1288 168 -1310 186
-11 9 -21 10 -34 4 -25 -14 -1068 59 -1085 76 -15 15 -20 15 -38 -2z"/>
</g>
</svg>
